<?xml version="1.0" encoding="UTF-8" standalone="no"?>
<svg
   xmlns:dc="http://purl.org/dc/elements/1.1/"
   xmlns:cc="http://creativecommons.org/ns#"
   xmlns:rdf="http://www.w3.org/1999/02/22-rdf-syntax-ns#"
   xmlns:svg="http://www.w3.org/2000/svg"
   xmlns="http://www.w3.org/2000/svg"
   xmlns:sodipodi="http://sodipodi.sourceforge.net/DTD/sodipodi-0.dtd"
   xmlns:inkscape="http://www.inkscape.org/namespaces/inkscape"
   version="1.1"
   width="256"
   height="256"
   viewbox="0 0 949 256"
   id="svg8"
   sodipodi:docname="favicon.svg"
   inkscape:version="1.0 (4035a4fb49, 2020-05-01)">
  <metadata
     id="metadata14">
    <rdf:RDF>
      <cc:Work
         rdf:about="">
        <dc:format>image/svg+xml</dc:format>
        <dc:type
           rdf:resource="http://purl.org/dc/dcmitype/StillImage" />
      </cc:Work>
    </rdf:RDF>
  </metadata>
  <defs
     id="defs12" />
  <sodipodi:namedview
     inkscape:document-rotation="0"
     pagecolor="#ffffff"
     bordercolor="#666666"
     borderopacity="1"
     objecttolerance="10"
     gridtolerance="10"
     guidetolerance="10"
     inkscape:pageopacity="0"
     inkscape:pageshadow="2"
     inkscape:window-width="1920"
     inkscape:window-height="1001"
     id="namedview10"
     showgrid="false"
     inkscape:zoom="1.6210938"
     inkscape:cx="74.83508"
     inkscape:cy="142.73009"
     inkscape:window-x="-9"
     inkscape:window-y="-9"
     inkscape:window-maximized="1"
     inkscape:current-layer="svg8" />
  <g
     transform="matrix(14.901257,0,0,14.901257,-514.70049,-1682.1154)"
     id="g162">
    <path
       id="path2-8"
       d="m 49.525763,115.0788 c 2.325059,2.32539 2.325059,6.09501 0,8.4204 -2.167269,2.16697 -5.589224,2.31448 -7.926851,0.44192 -0.170689,-0.13662 -0.335425,-0.2838 -0.493514,-0.44192 -0.158121,-0.15812 -0.305296,-0.32286 -0.44192,-0.49351 -1.872556,-2.33763 -1.725017,-5.75959 0.44192,-7.92686 2.325357,-2.32509 6.094941,-2.32509 8.420365,-3e-5 z"
       style="fill:#3273dc;fill-opacity:1;stroke-width:0.0330728" />
    <path
       id="path4-1"
       d="m 48.589964,116.0146 c -1.811767,-1.81243 -4.746525,-1.80264 -6.551149,0.002 -0.350209,0.3517 -0.645252,0.75535 -0.874911,1.22026 -3.25e-4,2.5e-4 -6.5e-4,0.001 -6.5e-4,0.002 -0.835819,1.6546 -0.594155,3.85345 0.877888,5.32493 2.25802,2.25842 6.073775,1.58827 7.438627,-1.2487 0.170823,-0.35103 0.195429,-0.48385 0.205748,-0.49417 0.570341,-1.64164 0.193476,-3.51711 -1.095541,-4.80596 z"
       style="fill:#d4e9ff;stroke-width:0.0330728" />
    <polygon
       id="polygon6"
       points="138.185,345.52 166.479,373.814 209.686,330.597 181.402,302.313 "
       style="fill:#ffe985"
       transform="matrix(0.03307292,0,0,0.03307291,34.663951,113.00731)" />
    <path
       id="path8"
       d="m 40.169898,125.37043 c 0.258332,0.25833 0.258332,0.6771 0,0.93547 l -2.916172,2.91584 c -0.516698,0.51703 -1.354237,0.51703 -1.870902,0 -0.517029,-0.51666 -0.517029,-1.35424 0,-1.8709 l 2.915841,-2.91617 c 0.258333,-0.25834 0.677102,-0.25834 0.935468,0 z"
       style="fill:#ff4300;fill-opacity:1;stroke-width:0.0330728" />
    <path
       id="path10"
       d="m 49.458493,122.01985 c 1.234182,-1.87057 1.08274,-4.42033 -0.545869,-6.14826 -1.625897,-1.70425 -4.12459,-1.96589 -5.972969,-0.93904 -0.159709,0.0887 -0.217223,0.29012 -0.128521,0.44979 0.0887,0.15975 0.290116,0.21719 0.449792,0.12853 1.690621,-0.93931 3.817805,-0.60312 5.171645,0.81594 1.396867,1.48203 1.554162,3.69117 0.473505,5.32897 -1.488547,2.26093 -4.703531,2.60165 -6.63112,0.6737 -1.298873,-1.29841 -1.675177,-3.39236 -0.736931,-5.09631 0.08804,-0.16007 0.02967,-0.36122 -0.130373,-0.44926 -0.16004,-0.088 -0.361157,-0.0297 -0.449263,0.13037 -0.02027,0.0369 -0.05632,0.10564 -0.09108,0.17608 h 3.3e-5 c -0.962025,1.96103 -0.524338,4.24329 0.939866,5.70693 2.220814,2.22121 5.930338,1.83654 7.651288,-0.77744 z"
       style="stroke-width:0.0330728" />
    <path
       id="path12"
       d="m 38.064773,124.20078 -2.915741,2.9161 c -0.646476,0.64605 -0.647006,1.69228 -1.63e-4,2.33869 0.646212,0.64664 1.692408,0.6469 2.338752,6e-5 l 2.916201,-2.91584 c 0.311117,-0.31115 0.36711,-0.76815 0.194072,-1.12954 l 1.030652,-1.03088 c 2.472465,1.7949 5.92756,1.55704 8.131142,-0.64625 2.45014,-2.45047 2.45014,-6.43767 -3.4e-5,-8.88818 -2.450405,-2.45007 -6.437676,-2.45017 -8.888181,4e-5 -2.203582,2.20391 -2.440814,5.65927 -0.64631,8.13117 l -1.030784,1.03055 c -0.361355,-0.17297 -0.818356,-0.11714 -1.129606,0.19408 z m 2.8067,-0.46769 c 0.07775,0.0778 0.158089,0.15369 0.240143,0.22761 l -0.941718,0.94195 -0.467916,-0.46792 0.94195,-0.94171 c 0.07388,0.082 0.149754,0.16235 0.227541,0.24007 z m -0.935467,2.33892 -2.916271,2.9159 c -0.387581,0.38788 -1.014974,0.38825 -1.403085,-1.2e-4 -0.387945,-0.38765 -0.388177,-1.01504 6.6e-5,-1.40302 l 2.915841,-2.91621 c 0.128885,-0.12892 0.338733,-0.12899 0.467618,0 l 0.935798,0.9358 c 0.128984,0.12892 0.128984,0.33873 3.3e-5,0.46765 z m 1.403251,-10.75928 c 2.19237,-2.19208 5.759913,-2.19244 7.952614,0 2.192239,2.19253 2.192239,5.76008 3.3e-5,7.95258 -2.191974,2.19164 -5.742616,2.21029 -7.952647,0 -2.207386,-2.20716 -2.194256,-5.75796 0,-7.95258 z"
       style="stroke-width:0.0330728" />
    <path
       id="path14"
       d="m 41.81554,116.25673 c 0.13001,0.12075 0.33311,0.11777 0.459449,-0.008 0.126041,-0.12638 0.129017,-0.32948 0.0079,-0.45945 -0.0023,-0.003 -0.005,-0.006 -0.0079,-0.009 -0.129348,-0.12902 -0.338733,-0.12902 -0.468048,0 -0.129018,0.12934 -0.129018,0.33873 0,0.46804 0.003,0.003 0.0056,0.006 0.0086,0.008 z"
       style="stroke-width:0.0330728" />
  </g>
</svg>
