<?xml version="1.0" encoding="UTF-8" standalone="no"?>
<svg
   xmlns:dc="http://purl.org/dc/elements/1.1/"
   xmlns:cc="http://creativecommons.org/ns#"
   xmlns:rdf="http://www.w3.org/1999/02/22-rdf-syntax-ns#"
   xmlns:svg="http://www.w3.org/2000/svg"
   xmlns="http://www.w3.org/2000/svg"
   xmlns:sodipodi="http://sodipodi.sourceforge.net/DTD/sodipodi-0.dtd"
   xmlns:inkscape="http://www.inkscape.org/namespaces/inkscape"
   inkscape:version="1.0 (4035a4fb49, 2020-05-01)"
   id="svg8"
   version="1.1"
   viewBox="0 0 310 99.999991"
   height="10cm"
   width="31cm">
  <defs
     id="defs2">
    <pattern
       id="EMFhbasepattern"
       patternUnits="userSpaceOnUse"
       width="6"
       height="6"
       x="0"
       y="0" />
    <pattern
       id="EMFhbasepattern-6"
       patternUnits="userSpaceOnUse"
       width="6"
       height="6"
       x="0"
       y="0" />
  </defs>
  <sodipodi:namedview
     inkscape:window-maximized="1"
     inkscape:window-y="-9"
     inkscape:window-x="-9"
     inkscape:window-height="1001"
     inkscape:window-width="1920"
     units="cm"
     showgrid="false"
     inkscape:document-rotation="0"
     inkscape:current-layer="layer1"
     inkscape:document-units="mm"
     inkscape:cy="91.569745"
     inkscape:cx="674.31737"
     inkscape:zoom="0.7"
     inkscape:pageshadow="2"
     inkscape:pageopacity="0.0"
     borderopacity="1.0"
     bordercolor="#666666"
     pagecolor="#ffffff"
     id="base" />
  <metadata
     id="metadata5">
    <rdf:RDF>
      <cc:Work
         rdf:about="">
        <dc:format>image/svg+xml</dc:format>
        <dc:type
           rdf:resource="http://purl.org/dc/dcmitype/StillImage" />
        <dc:title></dc:title>
      </cc:Work>
    </rdf:RDF>
  </metadata>
  <g
     id="layer1"
     inkscape:groupmode="layer"
     inkscape:label="Layer 1">
    <circle
       r="45.617039"
       cy="50.416664"
       cx="55.030663"
       id="path172"
       style="fill:#ccf7ff;stroke:none;stroke-width:0.402949;stroke-linejoin:round;fill-opacity:1" />
    <g
       transform="matrix(0.93447981,0,0,0.93447981,54.110968,42.617362)"
       id="g160">
      <path
         id="path164"
         d="m -1.0892065,59.913245 c -2.1132018,-0.06939 -6.2665253,-0.504944 -6.5631431,-0.688262 -0.1712536,-0.105842 0.094821,-1.026632 0.8704279,-3.01226 l 1.1170791,-2.85982 1.8554673,0.170482 c 2.745872,0.252293 7.609948,0.188651 10.0701125,-0.131759 1.1889615,-0.154848 2.2352563,-0.32651 2.3251007,-0.38147 0.089844,-0.05496 -1.3596964,-1.747584 -3.2211993,-3.761386 l -3.384554,-3.661459 h -6.9930585 -6.9930611 v -3.134535 -3.134535 h -3.217189 -3.217191 l -0.841431,0.84143 c -1.605061,1.605062 -3.810772,1.724894 -5.478217,0.297623 -1.084117,-0.927962 -1.51351,-1.83423 -1.51351,-3.194383 0,-2.304114 1.750247,-3.997565 4.131637,-3.997565 1.234058,0 2.805119,0.741177 3.221937,1.520007 0.211447,0.395092 0.466732,0.425567 3.564926,0.425567 h 3.337168 l 0.05998,-3.080492 0.05998,-3.080491 12.37600792,-0.05581 12.37600808,-0.05581 v 0.454408 c 0,0.278483 0.971237,1.513619 2.508698,3.190349 l 2.508698,2.735941 0.906322,-0.06981 c 1.188715,-0.09156 2.558307,0.473368 3.359296,1.385646 2.332044,2.656049 0.527289,6.786222 -2.966844,6.789612 -2.640969,0.0026 -3.999682,-1.4039 -4.207056,-4.354905 -0.04685,-0.666655 -0.407732,-1.175491 -2.325289,-3.278591 L 10.368061,33.3015 1.3427622,33.28343 -7.6825364,33.26536 v 4.107322 4.107321 h 6.1459473 c 6.0837776,0 6.1466456,0.0046 6.215026,0.455427 0.037993,0.250484 2.014652,2.580379 4.3925749,5.177542 3.8253822,4.178078 4.3857612,4.709021 4.8639332,4.608448 0.297241,-0.06252 1.659142,-0.549467 3.026448,-1.082109 4.758688,-1.853768 9.019926,-4.430594 13.078576,-7.908782 1.307858,-1.12081 2.507855,-2.196857 2.666659,-2.391213 0.253547,-0.310306 -0.08895,-0.76244 -2.810273,-3.709876 -2.933552,-3.177298 -3.142289,-3.356704 -3.909664,-3.36029 l -0.810655,-0.0038 v -9.803074 -9.803077 l -3.038324,-3.2755 C 20.466631,8.5821676 19.053896,7.1081926 18.9983,7.1081926 c -0.05559,0 -1.48511,1.2133698 -3.1767,2.6963788 l -3.075618,2.6963806 -5.3356076,0.0058 -5.3356052,0.0058 -0.4485801,0.62997 C 1.379471,13.489038 0.75846344,13.975431 0.2461702,14.223427 -1.8832382,15.254257 -4.3247339,14.362937 -5.328386,12.18832 -5.8738339,11.006493 -5.8360963,9.984684 -5.2002181,8.7179233 -3.9543053,6.2358926 -0.77667175,5.6538138 1.2100116,7.5437005 L 2.1011187,8.391389 6.7103095,8.413828 11.3195,8.436269 l 5.959155,-5.3268849 5.959153,-5.3268827 -0.05772,-8.0374334 -0.05772,-8.037417 -4.053278,-0.05881 -4.053278,-0.05881 v 4.401168 4.4011678 l 0.854626,0.8983966 c 2.766354,2.9080421 -0.07967,7.75199886 -3.94978,6.7225506 C 9.3504396,-2.6703717 8.0701788,-5.3245208 9.1566864,-7.7167741 9.3769318,-8.2017039 9.8125478,-8.7993754 10.124726,-9.0449349 l 0.567595,-0.4464702 v -6.5081769 -6.508176 h 6.26907 6.269069 v -4.088828 -4.088829 l -2.405092,-1.230235 -2.405091,-1.230235 -1.246207,0.245176 c -3.332162,0.655563 -6.308809,-1.668451 -6.308809,-4.925596 0,-2.206628 0.982903,-3.767426 2.961595,-4.702854 2.763244,-1.306325 6.061131,0.129063 7.028077,3.058934 0.21454,0.650066 0.528467,0.873968 2.875449,2.050848 4.98487,2.499635 10.702923,6.742821 14.287493,10.602297 7.22029,7.774025 11.679519,16.9022619 13.457505,27.54811533 C 52.035543,4.0850547 52.037843,12.64144 51.47953,16.179828 49.767257,27.03169 44.820516,36.879856 37.215918,44.576393 27.032958,54.882472 13.288926,60.385394 -1.0892065,59.913245 Z M 36.736983,35.589225 c 1.601736,-2.161393 1.7863,-2.442557 3.092977,-4.711796 5.736424,-9.962155 7.400927,-21.6051362 4.727,-33.0647538 -0.401359,-1.7200966 -1.521082,-5.0901561 -2.205234,-6.6371442 L 41.845287,-9.9696184 H 39.77973 37.714173 v 6.4000891 6.4000891 l 0.546468,0.4298528 c 1.198045,0.9423817 1.745793,3.1182202 1.169177,4.6443626 -0.516296,1.3664951 -2.362864,2.6476488 -3.830293,2.6574678 -2.154543,0.01442 -4.154422,-1.9755335 -4.154422,-4.1337992 0,-1.096804 0.717811,-2.6728374 1.429845,-3.1393794 l 0.515729,-0.337918 v -8.6221306 -8.6221308 h 3.152166 3.152166 l -0.486495,-0.810655 c -2.153093,-3.587735 -6.175373,-8.199591 -9.708984,-11.1321 l -2.053661,-1.704312 -0.0555,15.146263 -0.05551,15.1462655 h -1.481327 c -1.425513,0 -1.519132,0.033274 -2.484551,0.883072 -0.551771,0.4856886 -1.003222,0.9529786 -1.003222,1.0384217 0,0.085443 1.605098,1.9003475 3.566884,4.0331218 l 3.566885,3.877774 v 3.298448 3.298449 h 1.153775 c 1.048616,0 1.235839,-0.07806 2.05414,-0.856495 1.925396,-1.831587 4.581851,-1.602835 6.212428,0.534963 0.458926,0.601684 0.629185,1.099344 0.69704,2.037405 0.281873,3.896856 -4.171209,5.959699 -6.923616,3.207292 -0.745894,-0.745894 -0.917784,-0.815843 -2.004806,-0.815843 H 29.49953 v 3.583078 3.58308 l 3.080491,3.331256 c 1.69427,1.832192 3.13346,3.332724 3.198201,3.334517 0.06474,0.0017 0.496183,-0.507456 0.958761,-1.131661 z m -51.661378,22.053464 c -9.444031,-3.15788 -17.507645,-8.486176 -23.595421,-15.591449 -6.778037,-7.910903 -10.949316,-17.364068 -12.175662,-27.593103 -0.357774,-2.984216 -0.304354,-9.572855 0.102534,-12.6462276 1.250881,-9.4483486 5.096238,-18.4220204 11.023477,-25.7248034 11.482637,-14.147436 29.415452,-21.174451 47.3869677,-18.568696 l 0.9082391,0.131689 -0.5005312,1.328122 c -0.2752943,0.730467 -0.8072746,2.064248 -1.1821801,2.963958 l -0.6816468,1.635835 -1.5244366,-0.182069 c -0.8384427,-0.100137 -3.049857,-0.155313 -4.91425673,-0.122611 l -3.38981787,0.05946 -0.057161,6.504198 -0.057161,6.5042 2.4953599,2.715867 2.4953599,2.715869 0.8535014,-0.114478 c 1.3047945,-0.17501 3.072871,0.76559 3.8129628,2.028462 0.6396223,1.091436 0.77725,2.830463 0.2975603,3.759926 -0.3938078,0.763056 -1.3128621,1.70693 -2.0232104,2.077849 -0.9988206,0.5215519 -2.8132709,0.412656 -3.91872841,-0.235185 -1.19459284,-0.700078 -2.16053759,-2.48664 -2.01561609,-3.727983 0.086656,-0.742281 -0.014268,-0.912837 -1.4086384,-2.380757 -1.4274477,-1.50273 -1.549768,-1.581195 -2.4649722,-1.581195 -0.924811,0 -1.0929972,0.112702 -4.2419703,2.842623 -1.803438,1.563443 -3.453851,3.00564 -3.667587,3.204884 -0.369867,0.344793 -0.256902,0.504818 2.342477,3.3183597 1.5020945,1.625853 2.8686327,2.9560977 3.0367476,2.9560977 0.2601512,0 0.3056668,1.995726 0.3056668,13.402839 V 20.727206 H 2.8228119 13.328162 L 14.304613,19.8677 c 1.496496,-1.317268 3.384221,-1.447351 5.045888,-0.347711 2.299624,1.521819 2.299624,5.216112 0,6.737931 -1.669877,1.105073 -3.645259,0.967311 -5.078928,-0.354198 l -0.921608,-0.849508 -12.62395589,-0.0558 -12.62395611,-0.0558 -0.108088,-14.493622 -0.108087,-14.4936227 -9.295517,-10.0722483 -9.295517,-10.072247 -1.661476,1.63247 -1.661476,1.63247 1.337214,1.471131 c 7.490418,8.240554 16.111778,17.4554032 16.415407,17.5454313 0.35538,0.1053745 0.378306,0.98453801 0.378306,14.5080347 v 14.395864 h -9.295517 -9.295517 V 21.916168 16.83606 h -4.755846 c -2.647809,0 -4.755846,0.0856 -4.755846,0.193113 0,0.106211 0.280037,1.297875 0.622304,2.648141 3.253099,12.833675 12.127792,23.676682 24.129712,29.481428 1.54565,0.747556 3.783059,1.678865 4.972021,2.069573 1.188961,0.39071 2.240126,0.775104 2.335922,0.854206 0.180342,0.148919 -1.624221,4.883541 -2.078862,5.454303 -0.201365,0.252797 -0.39757,0.275733 -0.905585,0.105865 z M -20.220678,11.564695 V 0.24043738 L -23.29525,-3.0811493 c -1.691014,-1.8268718 -3.156876,-3.3215845 -3.257467,-3.3215845 -0.100593,0 -1.486829,1.7996554 -3.080523,3.9992342 -2.456199,3.38998439 -2.898525,4.1205861 -2.903515,4.7958168 -0.01184,1.602651 -0.914167,2.9270482 -2.491898,3.6575137 -3.650227,1.6899986 -7.244969,-2.6795237 -4.997888,-6.075094 0.762614,-1.1523869 2.010985,-1.7660316 3.577491,-1.7585389 l 1.230965,0.00588 2.796902,-3.8867887 c 1.538294,-2.1377269 2.796901,-3.9704311 2.796901,-4.072671 0,-0.229035 -6.777614,-7.5821803 -6.988723,-7.5821803 -0.492825,0 -3.513744,5.436522 -4.880299,8.7827072 -2.415169,5.9138535 -3.779748,13.9901384 -3.274602,19.3807968 l 0.156362,1.668621 h 7.115325 7.115325 v 5.188196 5.188196 h 5.080108 5.080108 z m 8.181867,-30.613656 4.3533953,-3.783059 0.00151,-6.567139 0.00151,-6.567138 -1.1022278,0.146216 c -2.6119755,0.346471 -8.5374715,2.473631 -11.8684095,4.26052 -1.79466,0.962749 -6.268054,3.88187 -6.645262,4.336379 -0.188887,0.227594 0.924697,1.554544 5.188135,6.1822 2.985757,3.240824 5.49374,5.866008 5.573296,5.833744 0.07956,-0.03227 2.103676,-1.76104 4.498046,-3.841723 z M 118.1312,36.431149 v -4.246677 h 3.10814 c 4.09385,0 4.79124,-0.296449 5.70349,-2.424494 l 0.25164,-0.587007 -2.20775,-0.06152 -2.20776,-0.06152 -4.58413,-15.240325 c -2.52127,-8.3821787 -4.58844,-15.3132839 -4.59371,-15.402456 -0.005,-0.089172 2.70007,-0.1621311 6.01186,-0.1621311 h 6.02145 l 2.03304,10.1749273 2.03303,10.1749298 1.7875,-10.108897 c 0.98312,-5.5598932 1.81883,-10.140227 1.85712,-10.1785202 0.0383,-0.038293 2.6429,-0.043689 5.78801,-0.011998 l 5.71839,0.057637 -4.15258,16.2588062 c -2.28392,8.942342 -4.31946,16.773275 -4.52341,17.402074 -0.65559,2.02115 -1.68592,3.699423 -3.251,5.295429 -2.47286,2.521714 -4.18969,3.050335 -10.52387,3.240337 L 118.1312,40.67781 V 36.43114 Z M 71.221269,10.350815 v -21.617482 l 6.431201,0.0019 6.431201,0.0019 0.468518,1.5652439 c 3.219653,10.7563706 6.455788,21.0951521 6.562719,20.9665281 0.07395,-0.08895 0.600231,-1.7181836 1.169523,-3.620522 0.88946,-2.9722157 2.424625,-8.015797 5.11589,-16.8075924 l 0.645193,-2.1077046 h 6.475956 6.47597 v 21.617482 21.617483 h -5.29466 -5.29466 l -0.0557,-13.479722 -0.0557,-13.479566 -2.579385,8.728407 -2.579389,8.728404 -4.107633,-0.05857 -4.107633,-0.05857 -2.500408,-8.493395 -2.500409,-8.4933917 -0.05569,13.3032817 -0.05569,13.303284 h -5.29458 -5.294634 z M 147.02657,31.82418 c -0.0793,-0.07926 -0.14412,-9.80713 -0.14412,-21.617482 v -21.473365 h 13.08325 13.08325 l -0.0587,4.161365 -0.0587,4.1613653 -7.07973,0.056997 -7.07972,0.056999 v 5.1852406 5.1852428 h 6.16098 6.16098 v 3.8911463 3.891147 h -6.16098 -6.16098 v 8.322731 8.32273 h -5.80069 c -3.19038,0 -5.86555,-0.06485 -5.94481,-0.144117 z m 36.59534,-0.07296 c -3.83399,-0.439602 -6.24664,-2.170672 -7.27396,-5.219055 -0.35414,-1.050867 -0.38998,-2.100767 -0.38998,-11.425507 0,-9.1886384 0.04,-10.3974901 0.38016,-11.4969466 0.49937,-1.6138467 1.52857,-2.93236825 2.95924,-3.79109895 2.16782,-1.30118435 2.77525,-1.39951585 9.35248,-1.51398035 8.82962,-0.1536636 10.88192,0.2408187 13.17315,2.53205351 1.01107,1.01106689 1.30315,1.47954589 1.67696,2.68980059 0.41734,1.3511878 0.45265,1.9780018 0.45265,8.0360588 v 6.570561 h -8.53891 -8.5389 v 2.48601 c 0,3.295391 0.0496,3.35071 3.00249,3.35071 2.75359,0 3.08415,-0.218458 3.22239,-2.129597 l 0.0961,-1.3292 h 5.40394 5.40396 l -0.091,2.756229 c -0.0811,2.455471 -0.15803,2.903936 -0.70475,4.109872 -0.92292,2.035664 -2.39838,3.209152 -5.09204,4.049849 -0.97091,0.303023 -2.25942,0.383938 -7.02569,0.441198 -3.21019,0.03857 -6.57093,-0.01407 -7.46829,-0.116957 z m 9.48652,-22.3910378 c -0.0914,-3.151602 -0.0559,-3.1166919 -3.17744,-3.1166919 -3.07003,0 -3.05619,-0.01435 -3.05619,3.1680399 v 2.4525058 h 3.15314 3.15313 z M 215.2798,31.733036 c -2.95336,-0.344675 -5.2543,-1.584347 -6.3983,-3.447175 -1.22517,-1.995048 -1.28367,-2.665129 -1.21155,-13.878547 l 0.0657,-10.2174815 0.60617,-1.2970489 c 1.00498,-2.15029749 2.46104,-3.35193118 5.01712,-4.1404116 1.1481,-0.3541592 2.10013,-0.3990998 8.42807,-0.3978438 6.90696,0.0013 7.17787,0.017294 8.52098,0.5008576 2.5489,0.91768593 3.93892,2.1827064 4.83802,4.4029321 0.43509,1.0743975 0.46961,1.5859968 0.54061,8.0112401 l 0.0759,6.863551 h -8.68642 -8.68642 l 0.0796,2.506895 c 0.10249,3.22859 0.1973,3.331273 3.07152,3.326638 1.15319,-0.0019 2.20066,-0.116645 2.5161,-0.275726 0.4843,-0.244228 0.54708,-0.423562 0.60436,-1.726213 l 0.0639,-1.453671 h 5.53176 5.53176 l -0.11416,2.648141 c -0.12376,2.870988 -0.40159,3.923807 -1.42987,5.418353 -1.22538,1.781053 -3.32254,2.81117 -6.45333,3.169882 -2.21893,0.254232 -10.28941,0.244962 -12.51151,-0.01438 z m 9.42559,-22.3395664 c 0,-3.201294 0.0477,-3.1510183 -2.98784,-3.1466667 -1.26964,0.00173 -2.42395,0.076759 -2.56513,0.1665303 -0.49111,0.312271 -0.7161,1.3840074 -0.7161,3.4111177 v 2.0395881 h 3.13453 3.13454 z M 246.2744,31.75634 c -2.65761,-0.33565 -4.91564,-1.740021 -5.88438,-3.65973 -0.96246,-1.907275 -1.01903,-2.729799 -0.94572,-13.746561 l 0.0691,-10.3763913 0.62248,-1.3477009 c 0.88463,-1.91526136 2.19938,-3.07548893 4.24146,-3.7429265 1.36979,-0.4477089 2.04051,-0.529918 4.32349,-0.529918 1.72244,0 3.00284,0.1062715 3.53139,0.2931028 0.96323,0.3404861 2.20643,1.37209832 2.77292,2.30098856 0.38814,0.63648134 0.39551,0.51097024 0.39631,-6.75545676 v -7.4039879 h 5.72863 5.72864 V 9.3780282 31.968297 h -5.62055 -5.62054 l -0.005,-1.999617 -0.005,-1.999617 -0.39824,0.876764 c -0.48142,1.059888 -1.98194,2.393351 -3.03693,2.698845 -1.09391,0.316759 -4.18817,0.42778 -5.89933,0.211668 z m 8.67977,-9.004626 c 0.43297,-0.550424 0.44804,-0.812612 0.44804,-7.792119 V 7.7370646 l -0.55488,-0.5548754 c -0.50684,-0.5068478 -0.67751,-0.5470649 -1.9717,-0.4646569 -1.06871,0.06805 -1.49008,0.1903938 -1.71496,0.4979306 -0.23974,0.3278637 -0.29813,1.8675191 -0.29813,7.8614501 0,8.746265 -0.13269,8.244391 2.17956,8.244391 1.32414,0 1.50685,-0.05443 1.91207,-0.56959 z"
         style="fill:#45d1e9;stroke-width:0.216175" />
      <path
         id="path162"
         d="m 118.1312,36.312964 v -4.128492 h 3.31875 c 3.09644,0 3.36772,-0.03301 4.04998,-0.492786 0.63169,-0.425695 1.69639,-1.900109 1.70706,-2.363969 0.002,-0.08501 -0.98204,-0.182291 -2.18665,-0.216174 l -2.1902,-0.06161 -1.16901,-3.891147 c -0.64295,-2.14013 -2.67616,-8.949637 -4.51826,-15.132237 -1.84209,-6.1826002 -3.39226,-11.3642243 -3.44482,-11.5147187 -0.0759,-0.2173227 1.13573,-0.2618071 5.88803,-0.2161748 l 5.98359,0.057453 2.06344,10.3203222 2.06345,10.3203243 1.83708,-10.374368 1.83708,-10.3743659 h 5.675 c 3.12124,0 5.67499,0.061815 5.67499,0.1373661 0,0.3164886 -8.06024,31.8685998 -8.46934,33.1535568 -1.37303,4.312555 -3.76627,7.006874 -7.31142,8.231208 -1.24337,0.429401 -1.94645,0.49615 -6.10694,0.579783 l -4.70181,0.09452 z M 71.221269,10.239511 v -21.512612 l 6.41202,0.05726 6.412019,0.05726 3.465231,11.40516106 C 89.416416,6.519421 91.037818,11.577912 91.113659,11.487672 91.189497,11.397434 92.678965,6.6055861 94.423589,0.83912274 96.168211,-4.9273406 97.708997,-10.010151 97.847558,-10.456012 l 0.251928,-0.810655 h 6.448974 6.44898 v 21.509395 21.509394 h -5.29466 -5.29466 l -0.0557,-13.483945 -0.0557,-13.4839459 -2.594096,8.8348399 -2.594098,8.834843 -4.044122,0.0013 -4.044125,0.0013 -0.468382,-1.567268 C 86.294346,20.027243 85.080122,15.917219 83.853682,11.755854 L 81.62379,4.1897352 81.610733,17.97088 81.59766,31.752122 h -5.188195 -5.188196 z m 75.877361,0.0032 v -21.509395 h 12.8624 12.8624 v 4.1073216 4.1073217 h -7.02568 -7.02568 v 5.2962831 5.2962832 h 6.16098 6.16098 v 3.8911464 3.891147 h -6.16098 -6.16098 v 8.214643 8.214644 h -5.83672 -5.83672 z m 34.80414,21.117193 c -2.54545,-0.665341 -4.3065,-2.046704 -5.27343,-4.136486 -0.44045,-0.951921 -0.45721,-1.3293 -0.51702,-11.656341 -0.0682,-11.7623312 -0.0525,-11.9360039 1.25829,-13.9148639 0.85754,-1.29467104 2.58676,-2.38476717 4.60275,-2.9015763 1.34205,-0.3440444 2.43797,-0.3968365 8.14406,-0.3922968 5.74545,0.00456 6.75929,0.055771 7.88387,0.3981638 3.48543,1.06118055 5.1428,2.7603579 5.71579,5.860013 0.13438,0.7268381 0.23553,3.9030494 0.23553,7.3952952 v 6.12128 h -8.66561 -8.66558 l 0.0726,2.463973 c 0.0986,3.343099 0.1267,3.372743 3.19993,3.372743 2.92368,0 3.24989,-0.217833 3.24989,-2.170171 v -1.288626 h 5.43355 5.43355 l -0.11046,2.648141 c -0.0847,2.029333 -0.22435,2.946526 -0.59783,3.925054 -0.85977,2.252557 -2.89266,3.805181 -5.79191,4.423559 -0.71643,0.152808 -3.59123,0.239669 -7.67421,0.231874 -5.41872,-0.01033 -6.76752,-0.0749 -7.93379,-0.379739 z m 11.2411,-21.8498572 c 0,-3.1505167 -0.11868,-3.3049196 -2.64227,-3.4373742 -3.40512,-0.1787269 -3.84298,0.2508211 -3.84298,3.7699419 v 2.0214035 h 3.24262 3.24263 V 9.5100635 Z m 21.00706,22.0107472 c -1.16725,-0.229707 -3.04348,-1.078948 -4.00649,-1.813479 -1.0333,-0.788135 -2.02087,-2.758519 -2.30704,-4.602961 -0.15682,-1.010665 -0.21114,-4.78099 -0.15865,-11.009613 0.0688,-8.1635484 0.13022,-9.624527 0.44454,-10.5721207 0.77793,-2.345246 2.40202,-3.80083975 5.23292,-4.6900057 1.41966,-0.445906 1.92089,-0.4754246 8.10656,-0.4774091 5.66799,-0.00173 6.80799,0.05295 8.12287,0.3902344 3.02221,0.77523538 4.79729,2.3179194 5.64266,4.9039345 0.33935,1.0380975 0.38901,2.0255732 0.3913,7.7822936 l 0.003,6.593332 -8.59294,0.05652 -8.59295,0.05653 v 2.34629 c 0,2.046345 0.0573,2.419104 0.44804,2.915878 0.43229,0.549577 0.52639,0.569591 2.67823,0.569591 2.85669,0 3.17557,-0.204858 3.31479,-2.129597 l 0.0961,-1.3292 h 5.37839 5.37838 l -0.007,1.351092 c -0.0175,3.549857 -0.7509,6.073501 -2.17526,7.48549 -0.90778,0.899893 -2.94592,1.889915 -4.49587,2.183857 -1.38588,0.262827 -13.55609,0.254122 -14.90156,-0.01066 z M 224.92156,9.7163634 c 0,-1.1812224 -0.0912,-2.3876703 -0.20277,-2.6809958 -0.2938,-0.7727601 -1.43931,-1.0781957 -3.61533,-0.963984 -2.49485,0.1309457 -2.5401,0.1879121 -2.63171,3.3137914 l -0.0726,2.478864 h 3.26121 3.26123 z m 19.88809,21.7029126 c -1.593,-0.434248 -3.41064,-1.709748 -4.15449,-2.91536 -1.12729,-1.827051 -1.24202,-3.06158 -1.24612,-13.411596 -0.002,-5.8871776 0.0845,-9.8955711 0.23176,-10.6919613 0.6782,-3.66880888 2.95714,-5.4951575 7.43868,-5.9613796 3.59858,-0.3743651 5.98567,0.2163629 7.35935,1.8211972 0.41097,0.48011779 0.7696,1.0256717 0.79697,1.2123387 0.0274,0.1866669 0.10035,-3.0167197 0.16213,-7.1186369 l 0.11237,-7.4580311 5.67459,-0.05763 5.67459,-0.05763 V 9.2663523 31.752122 h -5.62055 -5.62054 l -0.0164,-1.999617 c -0.0149,-1.802593 -0.0416,-1.930156 -0.27212,-1.294645 -0.38326,1.056784 -1.34928,2.155799 -2.36919,2.695402 -0.79553,0.420875 -1.28728,0.487792 -3.93557,0.535547 -2.16476,0.03904 -3.36498,-0.03771 -4.21541,-0.269533 z m 9.484,-8.120709 c 0.37694,-0.131402 0.78056,-0.416843 0.89695,-0.634313 0.12605,-0.235514 0.21161,-3.345751 0.21161,-7.69158 0,-7.1936347 -0.007,-7.3032116 -0.47003,-7.7965052 -0.39175,-0.4169905 -0.68979,-0.5003259 -1.78938,-0.5003259 -0.84425,0 -1.49237,0.1211833 -1.79981,0.3365194 l -0.48045,0.3365215 v 7.6206292 c 0,7.845147 0.0281,8.118962 0.8647,8.417945 0.56746,0.202807 1.85785,0.158113 2.56641,-0.08889 z"
         style="fill:#23468e;stroke-width:0.216175" />
    </g>
  </g>
</svg>
